<svg width="1786" height="950" viewBox="0 0 1786 950" fill="none" xmlns="http://www.w3.org/2000/svg">
<line x1="0.5" y1="2.13301e-08" x2="0.499958" y2="949" stroke="#E7E7E7"/>
<line x1="51.5" y1="2.13301e-08" x2="51.5" y2="949" stroke="#E7E7E7"/>
<line x1="102.5" y1="2.13301e-08" x2="102.5" y2="949" stroke="#E7E7E7"/>
<line x1="153.5" y1="2.13301e-08" x2="153.5" y2="949" stroke="#E7E7E7"/>
<line x1="204.5" y1="2.13301e-08" x2="204.5" y2="949" stroke="#E7E7E7"/>
<line x1="255.5" y1="2.13301e-08" x2="255.5" y2="949" stroke="#E7E7E7"/>
<line x1="306.5" y1="2.13301e-08" x2="306.5" y2="949" stroke="#E7E7E7"/>
<line x1="357.5" y1="2.13301e-08" x2="357.5" y2="949" stroke="#E7E7E7"/>
<line x1="408.5" y1="2.13301e-08" x2="408.5" y2="949" stroke="#E7E7E7"/>
<line x1="459.5" y1="2.13301e-08" x2="459.5" y2="949" stroke="#E7E7E7"/>
<line x1="510.5" y1="2.13301e-08" x2="510.5" y2="949" stroke="#E7E7E7"/>
<line x1="561.5" y1="2.13301e-08" x2="561.5" y2="949" stroke="#E7E7E7"/>
<line x1="612.5" y1="2.13301e-08" x2="612.5" y2="949" stroke="#E7E7E7"/>
<line x1="663.5" y1="2.13301e-08" x2="663.5" y2="949" stroke="#E7E7E7"/>
<line x1="714.5" y1="2.13301e-08" x2="714.5" y2="949" stroke="#E7E7E7"/>
<line x1="765.5" y1="2.13301e-08" x2="765.5" y2="949" stroke="#E7E7E7"/>
<line x1="816.5" y1="2.13301e-08" x2="816.5" y2="949" stroke="#E7E7E7"/>
<line x1="867.5" y1="2.13301e-08" x2="867.5" y2="949" stroke="#E7E7E7"/>
<line x1="918.5" y1="2.13301e-08" x2="918.5" y2="949" stroke="#E7E7E7"/>
<line x1="969.5" y1="2.13301e-08" x2="969.5" y2="949" stroke="#E7E7E7"/>
<line x1="1020.5" y1="2.13301e-08" x2="1020.5" y2="949" stroke="#E7E7E7"/>
<line x1="1071.5" y1="2.13301e-08" x2="1071.5" y2="949" stroke="#E7E7E7"/>
<line x1="1122.5" y1="2.13301e-08" x2="1122.5" y2="949" stroke="#E7E7E7"/>
<line x1="1173.5" y1="2.13301e-08" x2="1173.5" y2="949" stroke="#E7E7E7"/>
<line x1="1224.5" y1="2.13301e-08" x2="1224.5" y2="949" stroke="#E7E7E7"/>
<line x1="1275.5" y1="2.13301e-08" x2="1275.5" y2="949" stroke="#E7E7E7"/>
<line x1="1326.5" y1="2.13301e-08" x2="1326.5" y2="949" stroke="#E7E7E7"/>
<line x1="1377.5" y1="2.13301e-08" x2="1377.5" y2="949" stroke="#E7E7E7"/>
<line x1="1428.5" y1="2.13301e-08" x2="1428.5" y2="949" stroke="#E7E7E7"/>
<line x1="1479.5" y1="2.13301e-08" x2="1479.5" y2="949" stroke="#E7E7E7"/>
<line x1="1530.5" y1="2.13301e-08" x2="1530.5" y2="949" stroke="#E7E7E7"/>
<line x1="1581.5" y1="2.13301e-08" x2="1581.5" y2="949" stroke="#E7E7E7"/>
<line x1="1632.5" y1="2.13301e-08" x2="1632.5" y2="949" stroke="#E7E7E7"/>
<line x1="1683.5" y1="2.13301e-08" x2="1683.5" y2="949" stroke="#E7E7E7"/>
<line x1="1734.5" y1="2.13301e-08" x2="1734.5" y2="949" stroke="#E7E7E7"/>
<line x1="1785.5" y1="2.13301e-08" x2="1785.5" y2="949" stroke="#E7E7E7"/>
<line x1="1784" y1="0.5" x2="-7.14567e-08" y2="0.499905" stroke="#E7E7E7"/>
<line x1="1784" y1="56.5" x2="-7.14567e-08" y2="56.4999" stroke="#E7E7E7"/>
<line x1="1784" y1="112.5" x2="-7.14567e-08" y2="112.5" stroke="#E7E7E7"/>
<line x1="1784" y1="168.5" x2="-7.14567e-08" y2="168.5" stroke="#E7E7E7"/>
<line x1="1784" y1="223.5" x2="-7.14567e-08" y2="223.5" stroke="#E7E7E7"/>
<line x1="1784" y1="279.5" x2="-7.14567e-08" y2="279.5" stroke="#E7E7E7"/>
<line x1="1784" y1="335.5" x2="-7.14567e-08" y2="335.5" stroke="#E7E7E7"/>
<line x1="1784" y1="391.5" x2="-7.14567e-08" y2="391.5" stroke="#E7E7E7"/>
<line x1="1784" y1="447.5" x2="-7.14567e-08" y2="447.5" stroke="#E7E7E7"/>
<line x1="1784" y1="502.5" x2="-7.14567e-08" y2="502.5" stroke="#E7E7E7"/>
<line x1="1784" y1="558.5" x2="-7.14567e-08" y2="558.5" stroke="#E7E7E7"/>
<line x1="1784" y1="614.5" x2="-7.14567e-08" y2="614.5" stroke="#E7E7E7"/>
<line x1="1784" y1="670.5" x2="-7.14567e-08" y2="670.5" stroke="#E7E7E7"/>
<line x1="1784" y1="726.5" x2="-7.14567e-08" y2="726.5" stroke="#E7E7E7"/>
<line x1="1784" y1="781.5" x2="-7.14567e-08" y2="781.5" stroke="#E7E7E7"/>
<line x1="1784" y1="837.5" x2="-7.14567e-08" y2="837.5" stroke="#E7E7E7"/>
<line x1="1784" y1="893.5" x2="-7.14567e-08" y2="893.5" stroke="#E7E7E7"/>
<line x1="1784" y1="949.5" x2="-7.14567e-08" y2="949.5" stroke="#E7E7E7"/>
</svg>
