<svg width="117" height="32" viewBox="0 0 117 32" fill="none" xmlns="http://www.w3.org/2000/svg">
<path d="M41.6353 22.6464H38.9608V11.5832H35.457V9.35059H45.1196V11.5832H41.6353V22.6464Z" fill="#333333"/>
<path d="M48.849 10.8051C48.8412 11.1743 48.6915 11.5255 48.4321 11.7829C48.1728 12.0402 47.8247 12.183 47.4631 12.1804C47.1014 12.1778 46.7554 12.0299 46.4996 11.7689C46.2439 11.5078 46.099 11.1544 46.0964 10.7852C46.0905 10.5977 46.1223 10.411 46.1899 10.2365C46.2575 10.0621 46.3594 9.90368 46.4893 9.77103C46.6192 9.63839 46.7743 9.53436 46.9452 9.46535C47.116 9.39635 47.2988 9.36384 47.4824 9.36984C48.2828 9.36986 48.849 9.96792 48.849 10.8051ZM48.7123 22.6457H46.2331V13.4164H48.7123V22.6457Z" fill="#333333"/>
<path d="M52.8953 13.3366V14.4927C53.4614 13.4761 54.2227 13.0176 55.3745 13.0176C56.5457 13.0176 57.4047 13.5558 57.8341 14.5526C58.4394 13.496 59.2788 13.0176 60.5672 13.0176C61.4846 13.0176 62.2461 13.3167 62.7535 13.8747C63.3001 14.4927 63.4759 15.1305 63.4759 16.5259V22.5659H60.9967V17.0044C60.9967 15.7486 60.5477 15.1505 59.6106 15.1505C58.6931 15.1505 58.166 15.8283 58.166 17.0044V22.5659H55.6868V17.0841C55.6868 15.8084 55.2184 15.1505 54.3204 15.1505C53.3833 15.1505 52.8953 15.8084 52.8953 17.0841V22.5659H50.416V13.3366H52.8953Z" fill="#333333"/>
<path d="M91.7752 21.6607C90.7405 22.6175 89.6669 23.0361 88.3004 23.0361C85.5479 23.0361 83.5176 20.963 83.5176 18.1524C83.5176 15.2422 85.5089 13.1689 88.3199 13.1689C89.6669 13.1689 90.7796 13.6474 91.9313 14.7039L90.272 16.2388C89.7255 15.6807 89.1398 15.4215 88.4175 15.4215C87.051 15.4215 86.0359 16.5577 86.0359 18.0727C86.0359 19.6474 87.0706 20.7837 88.5151 20.7837C89.1594 20.7837 89.6279 20.5843 90.272 20.0062L91.7752 21.6607Z" fill="#333333"/>
<path d="M99.4845 13.488H101.964V22.7172H99.4845V21.4415C98.6451 22.5378 97.6691 23.0361 96.3416 23.0361C93.8038 23.0361 91.9883 21.0229 91.9883 18.2123C91.9883 15.3018 93.9015 13.1689 96.5367 13.1689C97.7668 13.1689 98.6061 13.6075 99.4845 14.664V13.488ZM94.6432 18.1724C94.6432 19.787 95.6779 21.0029 97.0248 21.0029C98.4109 21.0029 99.5236 19.6873 99.5236 18.0926C99.5236 16.4581 98.5085 15.3019 97.0443 15.3019C95.6389 15.3019 94.6432 16.478 94.6432 18.1724Z" fill="#333333"/>
<path d="M103.617 22.8075V9.51172H106.096V22.8075H103.617Z" fill="#333333"/>
<path d="M74.0944 18.8108H66.6433C66.7257 19.4354 67.0332 20.0061 67.5057 20.4115C67.9729 20.8077 68.5691 21.0057 69.2941 21.0057C69.7085 21.0118 70.1198 20.9327 70.5037 20.7733C70.8875 20.6138 71.2361 20.3772 71.5286 20.0774L73.4827 21.0144C73.04 21.6806 72.4374 22.2197 71.7325 22.5804C71.0528 22.9187 70.2457 23.0878 69.3112 23.0878C67.8611 23.0878 66.6801 22.6208 65.7683 21.6867C64.8564 20.7526 64.4004 19.5829 64.4004 18.1775C64.4004 16.7374 64.8549 15.5416 65.764 14.5902C66.673 13.6388 67.8129 13.1631 69.1837 13.1631C70.6393 13.1631 71.8231 13.6388 72.735 14.5902C73.6469 15.5416 74.1029 16.7981 74.1029 18.3597L74.0944 18.8108ZM71.775 16.9457C71.6254 16.4245 71.3055 15.9713 70.8685 15.6617C70.4104 15.3296 69.8601 15.1563 69.2984 15.1671C68.6866 15.1557 68.0883 15.3509 67.5963 15.7224C67.29 15.9538 67.0063 16.3616 66.7452 16.9457H71.775Z" fill="#333333"/>
<path d="M116.989 18.8967H109.538C109.62 19.5213 109.928 20.092 110.4 20.4974C110.868 20.8935 111.464 21.0916 112.189 21.0916C112.603 21.0977 113.014 21.0186 113.398 20.8592C113.782 20.6997 114.131 20.463 114.423 20.1633L116.377 21.1003C115.935 21.7664 115.332 22.3056 114.627 22.6662C113.947 23.0046 113.14 23.1738 112.206 23.1738C110.756 23.1738 109.575 22.7067 108.663 21.7726C107.751 20.8387 107.295 19.6689 107.295 18.2634C107.295 16.8233 107.749 15.6275 108.658 14.6761C109.568 13.7247 110.707 13.249 112.078 13.249C113.534 13.249 114.718 13.7247 115.63 14.6761C116.541 15.6275 116.997 16.884 116.998 18.4456L116.989 18.8967ZM114.67 17.0315C114.52 16.5104 114.2 16.0572 113.763 15.7475C113.305 15.4155 112.755 15.2422 112.193 15.253C111.581 15.2416 110.983 15.4368 110.491 15.8083C110.185 16.0397 109.901 16.4475 109.64 17.0315H114.67Z" fill="#333333"/>
<path d="M75.7626 19.853C75.8659 19.9353 76.5347 20.4361 77.7637 20.8463C78.3825 21.0248 79.0329 21.0574 79.6658 20.9415C79.9652 20.9018 80.2513 20.7908 80.501 20.6175C80.6079 20.5364 80.687 20.423 80.7271 20.2933C80.7502 20.1848 80.746 20.0721 80.7148 19.9657C80.6837 19.8593 80.6266 19.7628 80.549 19.685C80.346 19.4663 80.0491 19.3585 79.7714 19.2793C79.1514 19.1025 78.5696 18.9742 78.0381 18.864C77.4384 18.7397 76.872 18.6223 76.3655 18.3491C75.7086 17.9949 75.2147 17.6016 74.9915 16.836C74.8931 16.4543 74.8765 16.0555 74.9426 15.6666C75.0088 15.2777 75.1563 14.908 75.375 14.5826C76.1936 13.3804 77.6433 13.1111 78.4346 13.0575C80.9285 12.8888 82.7408 14.4741 82.8167 14.5417L81.4336 16.1605L81.4389 16.1652C81.4268 16.1547 80.1906 15.0435 78.6205 15.1497C77.7 15.212 77.3501 15.5451 77.2424 15.6854C77.1485 15.797 77.0974 15.9396 77.0987 16.0868C77.1214 16.3337 77.2494 16.5864 78.4147 16.855C79.1297 17.0198 79.5775 17.1183 80.3593 17.3663C81.7829 17.8179 83.0634 18.7642 82.8535 20.4842C82.6204 22.3937 80.6359 23.1057 78.9915 23.1057C78.3565 23.1085 77.7247 23.0156 77.1163 22.83C75.3939 22.2553 74.5839 21.6563 74.4609 21.5586L75.7606 19.8514L75.7626 19.853Z" fill="#333333"/>
<path d="M15.6671 31.9959C24.3198 31.9959 31.3342 24.8334 31.3342 15.998C31.3342 7.16254 24.3198 0 15.6671 0C7.01441 0 0 7.16254 0 15.998C0 24.8334 7.01441 31.9959 15.6671 31.9959Z" fill="#F8EED0"/>
<path d="M15.6677 26.7016C21.4687 26.7016 26.1713 21.8991 26.1713 15.9748C26.1713 10.0506 21.4687 5.24805 15.6677 5.24805C9.8667 5.24805 5.16406 10.0506 5.16406 15.9748C5.16406 21.8991 9.8667 26.7016 15.6677 26.7016Z" fill="#FCB415"/>
<path d="M22.6165 14.918C23.2476 13.3493 22.7878 11.6701 21.5896 11.1676C20.3914 10.665 18.9085 11.5293 18.2774 13.098C17.6463 14.6668 18.1061 16.3459 19.3043 16.8485C20.5025 17.3511 21.9855 16.4868 22.6165 14.918Z" fill="white"/>
<path d="M15.6931 29.2726C17.3563 29.2726 18.7046 27.7823 18.7046 25.9439C18.7046 24.1055 17.3563 22.6152 15.6931 22.6152C14.0299 22.6152 12.6816 24.1055 12.6816 25.9439C12.6816 27.7823 14.0299 29.2726 15.6931 29.2726Z" fill="white"/>
<path d="M12.1287 16.849C13.3269 16.3465 13.7867 14.6673 13.1556 13.0986C12.5245 11.5298 11.0416 10.6655 9.84339 11.1681C8.64517 11.6707 8.18541 13.3498 8.81648 14.9186C9.44756 16.4873 10.9305 17.3516 12.1287 16.849Z" fill="white"/>
<path d="M21.0037 26.2961C22.644 25.3994 24.0436 24.105 25.0793 22.5266C26.1149 20.9483 26.7551 19.1343 26.9433 17.2441L28.7623 19.378C28.2614 21.4415 27.301 23.3593 25.9559 24.982C24.6108 26.6048 22.9172 27.8888 21.0068 28.7342C21.0443 28.3548 21.0621 27.9737 21.0601 27.5924C21.0601 27.1522 21.0409 26.7192 21.0037 26.2961ZM12.0031 27.055C14.4182 27.8859 17.0362 27.8674 19.4398 27.0023C19.2267 27.9318 18.8429 28.8116 18.3087 29.5951C16.6046 29.9412 14.8515 29.9518 13.1435 29.6263C12.6071 28.8508 12.2201 27.9782 12.0031 27.055ZM10.3516 26.3295C8.68566 25.4323 7.26437 24.1261 6.21567 22.5286C5.16697 20.9311 4.52377 19.0923 4.34397 17.1779L2.57031 19.5359C3.09157 21.579 4.06418 23.4729 5.41355 25.0725C6.76291 26.6721 8.45316 27.9348 10.3546 28.7638C10.3148 28.3747 10.2959 27.9836 10.2981 27.5924C10.2981 27.1638 10.3164 26.742 10.3516 26.3295H10.3516ZM24.7619 9.15759L26.0495 7.27457C25.1326 6.14531 24.0461 5.17175 22.8304 4.39019L20.6558 5.66397C22.2762 6.47988 23.6836 7.67732 24.7619 9.15759ZM8.61222 4.2959C7.34018 5.09036 6.205 6.09338 5.25229 7.26466L6.70408 8.92733C7.76484 7.54419 9.11845 6.42416 10.6635 5.65122L8.61222 4.2959Z" fill="#333333"/>
<path d="M8.1774 15.9856C8.1777 14.3326 8.70234 12.7241 9.67276 11.401C10.6432 10.0779 12.0072 9.11136 13.5606 8.64606C13.6842 8.28013 13.8564 7.93328 14.0725 7.61523C12.452 7.93732 10.9614 8.74256 9.78891 9.92923C8.61641 11.1159 7.81461 12.6308 7.48479 14.2825C7.15497 15.9342 7.31193 17.6487 7.93584 19.2094C8.55975 20.7701 9.62263 22.107 10.9902 23.0512C11.0877 22.7596 11.1944 22.4784 11.3106 22.2076C10.3407 21.5003 9.55033 20.5667 9.00534 19.4844C8.46035 18.4021 8.17649 17.2026 8.1774 15.9856Z" fill="#333333"/>
<path d="M9.65234 13.4287L10.2861 13.5985C10.8574 12.2527 11.8909 11.1667 13.192 10.545C13.2086 10.2855 13.2374 10.0338 13.2762 9.79102C12.4648 10.1195 11.7261 10.6106 11.1037 11.2354C10.4813 11.8602 9.98781 12.606 9.65234 13.4287Z" fill="#333333"/>
<path d="M9.87931 16.9316H9.22656C9.47311 18.6701 10.384 20.2381 11.7599 21.2925C11.8695 21.0972 11.9842 20.9101 12.1041 20.7315C10.9141 19.8018 10.118 18.4421 9.87931 16.9316Z" fill="#333333"/>
<path d="M21.0603 13.6208L21.6912 13.4518C21.3156 12.5197 20.7378 11.6867 20.0014 11.0156C19.2649 10.3445 18.389 9.85264 17.4395 9.57715C17.4882 9.81045 17.5274 10.0533 17.5556 10.3042C18.3344 10.5759 19.0488 11.0115 19.6525 11.5828C20.2562 12.1541 20.7358 12.8484 21.0603 13.6208Z" fill="#333333"/>
<path d="M22.1827 15.1473L21.5047 14.4297L19.2669 14.797L18.9238 15.8478L19.9529 16.5484L21.8396 15.8478L22.1827 15.1473Z" fill="#333333"/>
<path d="M9.24023 15.1473L9.91822 14.4297L12.156 14.797L12.4991 15.8478L11.47 16.5484L9.58327 15.8478L9.24023 15.1473Z" fill="#333333"/>
<path d="M21.865 18C21.9745 17.6513 22.0556 17.294 22.1074 16.9316H21.4549C21.4228 17.1341 21.3805 17.3347 21.3281 17.5327C21.5182 17.6879 21.6971 17.8436 21.865 18Z" fill="#333333"/>
<path d="M19.8031 20.2188C19.6361 20.3892 19.4593 20.5492 19.2734 20.6979C19.3941 20.8758 19.5098 21.0623 19.6204 21.2574C19.9098 21.0306 20.18 20.7793 20.4282 20.5063C20.2248 20.4212 20.0157 20.3246 19.8031 20.2188Z" fill="#333333"/>
<path d="M23.1581 15.9852C23.1585 16.9508 22.9793 17.9076 22.6299 18.8049C22.8534 19.0692 23.0438 19.3609 23.1966 19.6733C23.7749 18.4433 24.0556 17.0896 24.0153 15.7258C23.9749 14.3621 23.6146 13.0281 22.9646 11.8361C22.3146 10.644 21.3939 9.62868 20.2799 8.87534C19.1658 8.12201 17.891 7.6527 16.5625 7.50684C16.7893 7.80322 16.974 8.13081 17.1111 8.47993C18.8145 8.82178 20.3488 9.75709 21.4517 11.126C22.5547 12.4949 23.1578 14.2125 23.1581 15.9852Z" fill="#333333"/>
<path d="M21.4409 20.8545C21.0409 21.3499 20.5818 21.7921 20.0742 22.171C20.1912 22.4412 20.299 22.7223 20.3978 23.0142C21.18 22.463 21.865 21.7802 22.4234 20.9949C22.0913 20.9916 21.761 20.9444 21.4409 20.8545Z" fill="#333333"/>
<path d="M16.3841 14.9428L16.3821 14.9449C16.3779 14.942 16.374 14.939 16.3701 14.9359L15.6677 7.44727H15.0134L14.4121 14.9882L14.415 14.9888C14.415 15.0037 14.4128 15.0176 14.4131 15.0327C14.4159 15.1548 14.4282 15.2765 14.4498 15.3967C14.4629 15.5316 14.4989 15.6632 14.5563 15.7854C14.653 16.0793 14.8532 16.3259 15.118 16.4774C15.1729 16.5211 15.2297 16.5636 15.2904 16.6033C15.3028 16.6114 15.3156 16.6167 15.3281 16.6245L15.327 16.6273L22.6178 20.7196L22.9988 20.1761L16.3841 14.9428Z" fill="#333333"/>
<path d="M17.3124 25.1941C17.0422 25.194 16.7796 25.1027 16.5654 24.9345C16.3511 24.7662 16.1973 24.5305 16.1279 24.2638L18.8231 23.2112L18.1799 21.5762L15.6658 22.6149L13.1477 21.5785L12.5059 23.21L15.1765 24.2845C15.1036 24.5464 14.9491 24.7768 14.7364 24.9409C14.5237 25.1051 14.2644 25.1939 13.9978 25.1941C13.9598 25.1941 13.9224 25.1919 13.8854 25.1884L13.3426 25.9643C13.7545 26.1045 14.199 26.1095 14.6138 25.9785C15.0285 25.8476 15.3927 25.5872 15.6552 25.2341C15.9251 25.5976 16.3026 25.8625 16.7317 25.9895C17.1607 26.1164 17.6185 26.0987 18.0369 25.9388L17.5042 25.1774C17.4408 25.1881 17.3767 25.1937 17.3124 25.1941Z" fill="#333333"/>
<path d="M24.0564 9.5215L23.1831 10.5388C23.9025 11.5752 24.4088 12.7497 24.6715 13.9914C24.9342 15.2331 24.9477 16.5163 24.7114 17.7635C24.4751 19.0107 23.9938 20.1961 23.2965 21.2482C22.5992 22.3002 21.7004 23.1971 20.6543 23.8847C20.7698 24.3375 20.8614 24.7963 20.9287 25.2591C22.2151 24.4986 23.3288 23.4681 24.1962 22.2355C25.0637 21.0029 25.6651 19.5964 25.9607 18.1089C26.2563 16.6215 26.2394 15.0868 25.9111 13.6065C25.5829 12.1262 24.9507 10.7338 24.0564 9.52148L24.0564 9.5215Z" fill="#333333"/>
<path d="M6.45554 15.9741C6.45323 14.0289 7.04446 12.1313 8.14704 10.5449L7.27352 9.52734C6.377 10.7446 5.74459 12.1428 5.41838 13.629C5.09217 15.1152 5.07963 16.6553 5.3816 18.1469C5.68357 19.6384 6.29312 21.0472 7.16971 22.2795C8.04629 23.5118 9.16981 24.5393 10.4655 25.2938C10.5316 24.8315 10.6218 24.3731 10.7358 23.9207C9.42388 23.0723 8.34343 21.8988 7.59505 20.5094C6.84666 19.12 6.45467 17.5598 6.45554 15.9741Z" fill="#333333"/>
<path d="M15.6676 5.24903C14.1082 5.24708 12.5682 5.60113 11.1602 6.2853L11.8028 7.43575C13.013 6.86454 14.3301 6.56839 15.6632 6.56775C16.9964 6.56712 18.3138 6.86201 19.5244 7.43207L20.1671 6.28161C18.7611 5.59991 17.2239 5.24715 15.6676 5.24903Z" fill="#333333"/>
</svg>
